<svg width="12" height="12" viewBox="0 0 12 12" fill="none" xmlns="http://www.w3.org/2000/svg">
<ellipse cx="3.81816" cy="1.63627" rx="0.545455" ry="0.545455" fill="#F871FF"/>
<ellipse cx="10.3637" cy="8.18193" rx="0.545455" ry="0.545455" transform="rotate(90 10.3637 8.18193)" fill="#F871FF"/>
<circle cx="3.81816" cy="3.81816" r="0.545455" fill="#F871FF"/>
<circle cx="8.18184" cy="8.18193" r="0.545455" transform="rotate(90 8.18184 8.18193)" fill="#F871FF"/>
<ellipse cx="3.81816" cy="2.72734" rx="0.545455" ry="0.545455" fill="#F871FF"/>
<ellipse cx="9.27272" cy="8.18193" rx="0.545455" ry="0.545455" transform="rotate(90 9.27272 8.18193)" fill="#F871FF"/>
<ellipse cx="3.81816" cy="6.00004" rx="0.545455" ry="0.545455" fill="#F871FF"/>
<ellipse cx="6.00002" cy="8.18193" rx="0.545455" ry="0.545455" transform="rotate(90 6.00002 8.18193)" fill="#F871FF"/>
<ellipse cx="3.81816" cy="7.09086" rx="0.545455" ry="0.545455" fill="#F871FF"/>
<ellipse cx="4.90907" cy="8.18193" rx="0.545455" ry="0.545455" transform="rotate(90 4.90907 8.18193)" fill="#F871FF"/>
<ellipse cx="3.81816" cy="8.18193" rx="0.545455" ry="0.545455" fill="#F871FF"/>
<ellipse cx="3.81819" cy="8.18193" rx="0.545455" ry="0.545455" transform="rotate(90 3.81819 8.18193)" fill="#F871FF"/>
<ellipse cx="3.81816" cy="4.90898" rx="0.545455" ry="0.545455" fill="#F871FF"/>
<ellipse cx="7.0909" cy="8.18193" rx="0.545455" ry="0.545455" transform="rotate(90 7.0909 8.18193)" fill="#F871FF"/>
<circle cx="2.72728" cy="2.72734" r="0.545455" fill="#F871FF"/>
<circle cx="9.27272" cy="7.09086" r="0.545455" transform="rotate(90 9.27272 7.09086)" fill="#F871FF"/>
<ellipse cx="1.63634" cy="3.81816" rx="0.545455" ry="0.545455" fill="#F871FF"/>
<ellipse cx="8.18184" cy="6.00004" rx="0.545455" ry="0.545455" transform="rotate(90 8.18184 6.00004)" fill="#F871FF"/>
<circle cx="4.9091" cy="2.72734" r="0.545455" fill="#F871FF"/>
<circle cx="9.27272" cy="9.27275" r="0.545455" transform="rotate(90 9.27272 9.27275)" fill="#F871FF"/>
<ellipse cx="5.99998" cy="3.81816" rx="0.545455" ry="0.545455" fill="#F871FF"/>
<ellipse cx="8.18184" cy="10.3636" rx="0.545455" ry="0.545455" transform="rotate(90 8.18184 10.3636)" fill="#F871FF"/>
</svg>
