<svg width="12" height="12" viewBox="0 0 12 12" fill="none" xmlns="http://www.w3.org/2000/svg">
<circle cx="5.99998" cy="1.6364" r="0.545455" fill="#00FF95"/>
<circle cx="1.63634" cy="10.3637" r="0.545455" fill="#00FF95"/>
<circle cx="3.81816" cy="8.18181" r="0.545455" fill="#00FF95"/>
<circle cx="2.72728" cy="9.27275" r="0.545455" fill="#00FF95"/>
<circle cx="9.27275" cy="9.27275" r="0.545455" fill="#00FF95"/>
<circle cx="5.99998" cy="3.81816" r="0.545455" fill="#00FF95"/>
<circle cx="5.99998" cy="2.72722" r="0.545455" fill="#00FF95"/>
<circle cx="4.9091" cy="7.09086" r="0.545455" fill="#00FF95"/>
<circle cx="5.99998" cy="6.00004" r="0.545455" fill="#00FF95"/>
<circle cx="5.99998" cy="4.9091" r="0.545455" fill="#00FF95"/>
<circle cx="7.09093" cy="7.09086" r="0.545455" fill="#00FF95"/>
<circle cx="8.18181" cy="8.18181" r="0.545455" fill="#00FF95"/>
<circle cx="0.545455" cy="0.545455" r="0.545455" transform="matrix(-1 0 0 1 10.9091 9.81824)" fill="#00FF95"/>
<circle cx="1.63634" cy="9.27275" r="0.545455" fill="#00FF95"/>
<circle cx="0.545455" cy="0.545455" r="0.545455" transform="matrix(-1 0 0 1 10.9091 8.72729)" fill="#00FF95"/>
<circle cx="1.63634" cy="8.18181" r="0.545455" fill="#00FF95"/>
<circle cx="0.545455" cy="0.545455" r="0.545455" transform="matrix(-1 0 0 1 10.9091 7.63635)" fill="#00FF95"/>
<circle cx="2.72728" cy="10.3637" r="0.545455" fill="#00FF95"/>
<circle cx="0.545455" cy="0.545455" r="0.545455" transform="matrix(-1 0 0 1 9.81818 9.81824)" fill="#00FF95"/>
<circle cx="3.81816" cy="10.3637" r="0.545455" fill="#00FF95"/>
<circle cx="0.545455" cy="0.545455" r="0.545455" transform="matrix(-1 0 0 1 8.72729 9.81824)" fill="#00FF95"/>
<circle cx="4.9091" cy="2.72722" r="0.545455" fill="#00FF95"/>
<circle cx="3.81816" cy="3.81816" r="0.545455" fill="#00FF95"/>
<circle cx="7.09093" cy="2.72722" r="0.545455" fill="#00FF95"/>
<circle cx="8.18181" cy="3.81816" r="0.545455" fill="#00FF95"/>
</svg>
