<svg width="16" height="16" viewBox="0 0 16 16" fill="none" xmlns="http://www.w3.org/2000/svg">
<circle cx="13.8181" cy="9.45457" r="0.727273" fill="#06010A"/>
<circle cx="13.8181" cy="7.99998" r="0.727273" fill="#06010A"/>
<circle cx="13.8181" cy="6.54551" r="0.727273" fill="#06010A"/>
<circle cx="3.63645" cy="5.09092" r="0.727273" fill="#06010A"/>
<circle cx="3.63645" cy="10.909" r="0.727273" fill="#06010A"/>
<circle cx="2.18186" cy="12.3636" r="0.727273" fill="#06010A"/>
<circle cx="12.3635" cy="12.3636" r="0.727273" fill="#06010A"/>
<circle cx="12.3635" cy="10.909" r="0.727273" fill="#06010A"/>
<circle cx="2.18186" cy="10.909" r="0.727273" fill="#06010A"/>
<circle cx="3.63645" cy="12.3636" r="0.727273" fill="#06010A"/>
<circle cx="13.8181" cy="12.3636" r="0.727273" fill="#06010A"/>
<circle cx="13.8181" cy="10.909" r="0.727273" fill="#06010A"/>
<circle cx="13.8181" cy="13.8182" r="0.727273" fill="#06010A"/>
<circle cx="13.8181" cy="12.3636" r="0.727273" fill="#06010A"/>
<circle cx="2.18186" cy="13.8182" r="0.727273" fill="#06010A"/>
<circle cx="12.3635" cy="12.3636" r="0.727273" fill="#06010A"/>
<circle cx="3.63645" cy="6.54551" r="0.727273" fill="#06010A"/>
<circle cx="5.09104" cy="5.09092" r="0.727273" fill="#06010A"/>
<circle cx="6.54563" cy="10.909" r="0.727273" fill="#06010A"/>
<circle cx="5.09104" cy="10.909" r="0.727273" fill="#06010A"/>
<circle cx="3.63645" cy="9.45457" r="0.727273" fill="#06010A"/>
<circle cx="6.54563" cy="9.45457" r="0.727273" fill="#06010A"/>
<circle cx="5.09104" cy="7.99998" r="0.727273" fill="#06010A"/>
<circle cx="6.54563" cy="6.54551" r="0.727273" fill="#06010A"/>
<circle cx="8.00022" cy="10.909" r="0.727273" fill="#06010A"/>
<circle cx="8.00022" cy="9.45457" r="0.727273" fill="#06010A"/>
<circle cx="8.00022" cy="7.99998" r="0.727273" fill="#06010A"/>
<circle cx="8.00022" cy="6.54551" r="0.727273" fill="#06010A"/>
<circle cx="8.00022" cy="5.09092" r="0.727273" fill="#06010A"/>
<circle cx="8.00022" cy="3.63633" r="0.727273" fill="#06010A"/>
<circle cx="9.45432" cy="2.18186" r="0.727273" fill="#06010A"/>
<circle cx="9.45432" cy="10.909" r="0.727273" fill="#06010A"/>
<circle cx="9.45432" cy="9.45457" r="0.727273" fill="#06010A"/>
<circle cx="10.9089" cy="7.99998" r="0.727273" fill="#06010A"/>
<circle cx="12.3635" cy="9.45457" r="0.727273" fill="#06010A"/>
<circle cx="9.45432" cy="6.54551" r="0.727273" fill="#06010A"/>
<circle cx="10.9089" cy="5.09092" r="0.727273" fill="#06010A"/>
<circle cx="10.9089" cy="6.54551" r="0.727273" fill="#06010A"/>
<circle cx="5.09104" cy="6.54551" r="0.727273" fill="#06010A"/>
<circle cx="10.9089" cy="10.909" r="0.727273" fill="#06010A"/>
<circle cx="12.3635" cy="5.09092" r="0.727273" fill="#06010A"/>
<circle cx="12.3635" cy="10.909" r="0.727273" fill="#06010A"/>
<circle cx="12.3635" cy="6.54551" r="0.727273" fill="#06010A"/>
<circle cx="2.18186" cy="9.45457" r="0.727273" fill="#06010A"/>
<circle cx="2.18186" cy="7.99998" r="0.727273" fill="#06010A"/>
<circle cx="2.18186" cy="6.54551" r="0.727273" fill="#06010A"/>
</svg>
