<svg width="12" height="12" viewBox="0 0 12 12" fill="none" xmlns="http://www.w3.org/2000/svg">
<ellipse cx="1.63627" cy="10.3637" rx="0.545455" ry="0.545455" fill="#F871FF"/>
<circle cx="7.09086" cy="10.3637" r="0.545455" fill="#F871FF"/>
<ellipse cx="1.63627" cy="9.27275" rx="0.545455" ry="0.545455" fill="#F871FF"/>
<circle cx="7.09086" cy="9.27275" r="0.545455" fill="#F871FF"/>
<ellipse cx="1.63627" cy="8.18181" rx="0.545455" ry="0.545455" fill="#F871FF"/>
<ellipse cx="7.09086" cy="8.18181" rx="0.545455" ry="0.545455" fill="#F871FF"/>
<ellipse cx="1.63627" cy="7.09086" rx="0.545455" ry="0.545455" fill="#F871FF"/>
<circle cx="7.09086" cy="7.09086" r="0.545455" fill="#F871FF"/>
<ellipse cx="1.63627" cy="6.00004" rx="0.545455" ry="0.545455" fill="#F871FF"/>
<circle cx="7.09086" cy="6.00004" r="0.545455" fill="#F871FF"/>
<circle cx="2.72734" cy="6.00004" r="0.545455" fill="#F871FF"/>
<ellipse cx="8.18193" cy="10.3637" rx="0.545455" ry="0.545455" fill="#F871FF"/>
<ellipse cx="3.81816" cy="6.00004" rx="0.545455" ry="0.545455" fill="#F871FF"/>
<circle cx="9.27275" cy="10.3637" r="0.545455" fill="#F871FF"/>
<ellipse cx="1.63627" cy="4.9091" rx="0.545455" ry="0.545455" fill="#F871FF"/>
<circle cx="7.09086" cy="4.9091" r="0.545455" fill="#F871FF"/>
<ellipse cx="1.63627" cy="3.81816" rx="0.545455" ry="0.545455" fill="#F871FF"/>
<ellipse cx="7.09086" cy="3.81816" rx="0.545455" ry="0.545455" fill="#F871FF"/>
<ellipse cx="1.63627" cy="2.72722" rx="0.545455" ry="0.545455" fill="#F871FF"/>
<circle cx="7.09086" cy="2.72722" r="0.545455" fill="#F871FF"/>
<ellipse cx="2.72734" cy="1.6364" rx="0.545455" ry="0.545455" fill="#F871FF"/>
<ellipse cx="8.18193" cy="1.6364" rx="0.545455" ry="0.545455" fill="#F871FF"/>
<ellipse cx="3.81816" cy="1.6364" rx="0.545455" ry="0.545455" fill="#F871FF"/>
<ellipse cx="9.27275" cy="1.6364" rx="0.545455" ry="0.545455" fill="#F871FF"/>
<ellipse cx="4.90898" cy="3.81816" rx="0.545455" ry="0.545455" fill="#F871FF"/>
<ellipse cx="10.3636" cy="3.81816" rx="0.545455" ry="0.545455" fill="#F871FF"/>
<circle cx="4.90898" cy="2.72722" r="0.545455" fill="#F871FF"/>
<circle cx="10.3636" cy="2.72722" r="0.545455" fill="#F871FF"/>
<circle cx="4.90898" cy="4.9091" r="0.545455" fill="#F871FF"/>
<circle cx="10.3636" cy="4.9091" r="0.545455" fill="#F871FF"/>
<circle cx="4.90898" cy="6.00004" r="0.545455" fill="#F871FF"/>
<circle cx="10.3636" cy="6.00004" r="0.545455" fill="#F871FF"/>
<circle cx="4.90898" cy="7.09086" r="0.545455" fill="#F871FF"/>
<circle cx="10.3636" cy="7.09086" r="0.545455" fill="#F871FF"/>
<ellipse cx="4.90898" cy="8.18181" rx="0.545455" ry="0.545455" fill="#F871FF"/>
<ellipse cx="10.3636" cy="8.18181" rx="0.545455" ry="0.545455" fill="#F871FF"/>
<circle cx="4.90898" cy="9.27275" r="0.545455" fill="#F871FF"/>
<circle cx="10.3636" cy="9.27275" r="0.545455" fill="#F871FF"/>
<circle cx="4.90898" cy="10.3637" r="0.545455" fill="#F871FF"/>
</svg>
