<svg width="28" height="28" viewBox="0 0 28 28" fill="none" xmlns="http://www.w3.org/2000/svg">
<circle cx="11.5755" cy="6.72726" r="1.21212" transform="rotate(90 11.5755 6.72726)" fill="#00F539"/>
<circle cx="11.5755" cy="16.4243" r="1.21212" transform="rotate(90 11.5755 16.4243)" fill="#00F539"/>
<circle cx="21.2727" cy="6.72726" r="1.21212" transform="rotate(90 21.2727 6.72726)" fill="#00F539"/>
<circle cx="18.8481" cy="15.42" r="1.21212" transform="rotate(45 18.8481 15.42)" fill="#00F539"/>
<circle cx="6.72733" cy="6.72726" r="1.21212" transform="rotate(90 6.72733 6.72726)" fill="#00F539"/>
<circle cx="6.72733" cy="16.4243" r="1.21212" transform="rotate(90 6.72733 16.4243)" fill="#00F539"/>
<circle cx="16.4241" cy="6.72726" r="1.21212" transform="rotate(90 16.4241 6.72726)" fill="#00F539"/>
<circle cx="15.4204" cy="18.8487" r="1.21212" transform="rotate(45 15.4204 18.8487)" fill="#00F539"/>
<circle cx="6.72733" cy="9.15157" r="1.21212" transform="rotate(90 6.72733 9.15157)" fill="#00F539"/>
<circle cx="6.72733" cy="18.8486" r="1.21212" transform="rotate(90 6.72733 18.8486)" fill="#00F539"/>
<circle cx="16.4241" cy="9.15157" r="1.21212" transform="rotate(90 16.4241 9.15157)" fill="#00F539"/>
<circle cx="17.1343" cy="20.5628" r="1.21212" transform="rotate(45 17.1343 20.5628)" fill="#00F539"/>
<circle cx="6.72733" cy="11.5759" r="1.21212" transform="rotate(90 6.72733 11.5759)" fill="#00F539"/>
<circle cx="6.72733" cy="21.2729" r="1.21212" transform="rotate(90 6.72733 21.2729)" fill="#00F539"/>
<circle cx="16.4241" cy="11.5759" r="1.21212" transform="rotate(90 16.4241 11.5759)" fill="#00F539"/>
<circle cx="18.8481" cy="22.2767" r="1.21212" transform="rotate(45 18.8481 22.2767)" fill="#00F539"/>
<circle cx="11.5755" cy="11.5759" r="1.21212" transform="rotate(90 11.5755 11.5759)" fill="#00F539"/>
<circle cx="11.5755" cy="21.2729" r="1.21212" transform="rotate(90 11.5755 21.2729)" fill="#00F539"/>
<circle cx="21.2727" cy="11.5759" r="1.21212" transform="rotate(90 21.2727 11.5759)" fill="#00F539"/>
<circle cx="22.2764" cy="18.8487" r="1.21212" transform="rotate(45 22.2764 18.8487)" fill="#00F539"/>
<circle cx="11.5755" cy="9.15157" r="1.21212" transform="rotate(90 11.5755 9.15157)" fill="#00F539"/>
<circle cx="11.5755" cy="18.8486" r="1.21212" transform="rotate(90 11.5755 18.8486)" fill="#00F539"/>
<circle cx="21.2727" cy="9.15157" r="1.21212" transform="rotate(90 21.2727 9.15157)" fill="#00F539"/>
<circle cx="20.5625" cy="17.1341" r="1.21212" transform="rotate(45 20.5625 17.1341)" fill="#00F539"/>
<circle cx="9.15116" cy="9.15157" r="1.21212" transform="rotate(90 9.15116 9.15157)" fill="#00F539"/>
<circle cx="9.15116" cy="18.8486" r="1.21212" transform="rotate(90 9.15116 18.8486)" fill="#00F539"/>
<circle cx="18.8484" cy="9.15157" r="1.21212" transform="rotate(90 18.8484 9.15157)" fill="#00F539"/>
<circle cx="9.15116" cy="11.5759" r="1.21212" transform="rotate(90 9.15116 11.5759)" fill="#00F539"/>
<circle cx="9.15116" cy="21.2729" r="1.21212" transform="rotate(90 9.15116 21.2729)" fill="#00F539"/>
<circle cx="18.8484" cy="11.5759" r="1.21212" transform="rotate(90 18.8484 11.5759)" fill="#00F539"/>
<circle cx="20.5625" cy="20.5628" r="1.21212" transform="rotate(45 20.5625 20.5628)" fill="#00F539"/>
<circle cx="9.15116" cy="6.72726" r="1.21212" transform="rotate(90 9.15116 6.72726)" fill="#00F539"/>
<circle cx="9.15116" cy="16.4243" r="1.21212" transform="rotate(90 9.15116 16.4243)" fill="#00F539"/>
<circle cx="18.8484" cy="6.72726" r="1.21212" transform="rotate(90 18.8484 6.72726)" fill="#00F539"/>
<circle cx="17.1343" cy="17.1341" r="1.21212" transform="rotate(45 17.1343 17.1341)" fill="#00F539"/>
</svg>
