<svg width="12" height="12" viewBox="0 0 12 12" fill="none" xmlns="http://www.w3.org/2000/svg">
<ellipse cx="4.9091" cy="1.6364" rx="0.545455" ry="0.545455" fill="#FFEE00"/>
<ellipse cx="6.00004" cy="1.6364" rx="0.545455" ry="0.545455" fill="#FFEE00"/>
<ellipse cx="8.18181" cy="1.6364" rx="0.545455" ry="0.545455" fill="#FFEE00"/>
<circle cx="9.27275" cy="2.72722" r="0.545455" fill="#FFEE00"/>
<ellipse cx="10.3637" cy="3.81816" rx="0.545455" ry="0.545455" fill="#FFEE00"/>
<circle cx="2.72722" cy="2.72722" r="0.545455" fill="#FFEE00"/>
<ellipse cx="1.6364" cy="3.81816" rx="0.545455" ry="0.545455" fill="#FFEE00"/>
<ellipse cx="1.6364" cy="6.00004" rx="0.545455" ry="0.545455" fill="#FFEE00"/>
<ellipse cx="1.6364" cy="4.9091" rx="0.545455" ry="0.545455" fill="#FFEE00"/>
<circle cx="10.3637" cy="4.9091" r="0.545455" fill="#FFEE00"/>
<circle cx="9.27275" cy="4.9091" r="0.545455" fill="#FFEE00"/>
<ellipse cx="8.18181" cy="4.9091" rx="0.545455" ry="0.545455" fill="#FFEE00"/>
<circle cx="7.09086" cy="4.9091" r="0.545455" fill="#FFEE00"/>
<circle cx="6.00004" cy="4.9091" r="0.545455" fill="#FFEE00"/>
<circle cx="4.9091" cy="4.9091" r="0.545455" fill="#FFEE00"/>
<ellipse cx="3.81816" cy="4.9091" rx="0.545455" ry="0.545455" fill="#FFEE00"/>
<circle cx="2.72722" cy="4.9091" r="0.545455" fill="#FFEE00"/>
<circle cx="2.72722" cy="7.09086" r="0.545455" fill="#FFEE00"/>
<ellipse cx="3.81816" cy="8.18181" rx="0.545455" ry="0.545455" fill="#FFEE00"/>
<circle cx="4.9091" cy="9.27275" r="0.545455" fill="#FFEE00"/>
<circle cx="6.00004" cy="10.3637" r="0.545455" fill="#FFEE00"/>
<circle cx="6.00004" cy="9.27275" r="0.545455" fill="#FFEE00"/>
<ellipse cx="6.00004" cy="8.18181" rx="0.545455" ry="0.545455" fill="#FFEE00"/>
<circle cx="6.00004" cy="7.09086" r="0.545455" fill="#FFEE00"/>
<circle cx="7.09086" cy="6.00004" r="0.545455" fill="#FFEE00"/>
<ellipse cx="7.09086" cy="3.81816" rx="0.545455" ry="0.545455" fill="#FFEE00"/>
<circle cx="6.00004" cy="2.72722" r="0.545455" fill="#FFEE00"/>
<ellipse cx="4.9091" cy="3.81816" rx="0.545455" ry="0.545455" fill="#FFEE00"/>
<circle cx="4.9091" cy="6.00004" r="0.545455" fill="#FFEE00"/>
<circle cx="7.09086" cy="9.27275" r="0.545455" fill="#FFEE00"/>
<circle cx="8.18181" cy="8.18181" r="0.545455" fill="#FFEE00"/>
<circle cx="9.27275" cy="7.09086" r="0.545455" fill="#FFEE00"/>
<circle cx="10.3637" cy="6.00004" r="0.545455" fill="#FFEE00"/>
<ellipse cx="3.81816" cy="1.6364" rx="0.545455" ry="0.545455" fill="#FFEE00"/>
<ellipse cx="7.09086" cy="1.6364" rx="0.545455" ry="0.545455" fill="#FFEE00"/>
</svg>
