<svg width="12" height="12" viewBox="0 0 12 12" fill="none" xmlns="http://www.w3.org/2000/svg">
<circle cx="10.3636" cy="1.6364" r="0.545455" fill="#00FBFF"/>
<circle cx="9.27275" cy="1.6364" r="0.545455" fill="#00FBFF"/>
<circle cx="8.18181" cy="2.72722" r="0.545455" fill="#00FBFF"/>
<circle cx="8.18181" cy="1.6364" r="0.545455" fill="#00FBFF"/>
<circle cx="5.99998" cy="2.72722" r="0.545455" fill="#00FBFF"/>
<circle cx="3.81816" cy="3.81816" r="0.545455" fill="#00FBFF"/>
<circle cx="1.63634" cy="4.9091" r="0.545455" fill="#00FBFF"/>
<circle cx="7.09093" cy="2.72722" r="0.545455" fill="#00FBFF"/>
<circle cx="5.99998" cy="3.81816" r="0.545455" fill="#00FBFF"/>
<circle cx="4.9091" cy="3.81816" r="0.545455" fill="#00FBFF"/>
<circle cx="3.81816" cy="4.9091" r="0.545455" fill="#00FBFF"/>
<circle cx="2.72728" cy="4.9091" r="0.545455" fill="#00FBFF"/>
<circle cx="2.72728" cy="6.00004" r="0.545455" fill="#00FBFF"/>
<circle cx="3.81816" cy="6.00004" r="0.545455" fill="#00FBFF"/>
<circle cx="4.9091" cy="4.9091" r="0.545455" fill="#00FBFF"/>
<circle cx="5.99998" cy="4.9091" r="0.545455" fill="#00FBFF"/>
<circle cx="7.09093" cy="3.81816" r="0.545455" fill="#00FBFF"/>
<circle cx="7.09093" cy="3.81816" r="0.545455" fill="#00FBFF"/>
<circle cx="8.18181" cy="3.81816" r="0.545455" fill="#00FBFF"/>
<circle cx="9.27275" cy="2.72722" r="0.545455" fill="#00FBFF"/>
<circle cx="10.3636" cy="2.72722" r="0.545455" fill="#00FBFF"/>
<circle cx="10.3636" cy="3.81816" r="0.545455" fill="#00FBFF"/>
<circle cx="10.3636" cy="4.9091" r="0.545455" fill="#00FBFF"/>
<circle cx="9.27275" cy="6.00004" r="0.545455" fill="#00FBFF"/>
<circle cx="10.3636" cy="6.00004" r="0.545455" fill="#00FBFF"/>
<circle cx="9.27275" cy="7.09086" r="0.545455" fill="#00FBFF"/>
<circle cx="9.27275" cy="8.18181" r="0.545455" fill="#00FBFF"/>
<circle cx="9.27275" cy="9.27275" r="0.545455" fill="#00FBFF"/>
<circle cx="8.18181" cy="10.3637" r="0.545455" fill="#00FBFF"/>
<circle cx="7.09093" cy="10.3637" r="0.545455" fill="#00FBFF"/>
<circle cx="1.63634" cy="7.09086" r="0.545455" fill="#00FBFF"/>
<circle cx="2.72728" cy="7.09086" r="0.545455" fill="#00FBFF"/>
<circle cx="8.18181" cy="9.27275" r="0.545455" fill="#00FBFF"/>
<circle cx="7.09093" cy="9.27275" r="0.545455" fill="#00FBFF"/>
<circle cx="7.09093" cy="7.09086" r="0.545455" fill="#00FBFF"/>
<circle cx="7.09093" cy="8.18181" r="0.545455" fill="#00FBFF"/>
<circle cx="8.18181" cy="8.18181" r="0.545455" fill="#00FBFF"/>
<circle cx="8.18181" cy="7.09086" r="0.545455" fill="#00FBFF"/>
<circle cx="8.18181" cy="6.00004" r="0.545455" fill="#00FBFF"/>
<circle cx="9.27275" cy="4.9091" r="0.545455" fill="#00FBFF"/>
<circle cx="8.18181" cy="4.9091" r="0.545455" fill="#00FBFF"/>
<circle cx="9.27275" cy="3.81816" r="0.545455" fill="#00FBFF"/>
<circle cx="1.63634" cy="6.00004" r="0.545455" fill="#00FBFF"/>
</svg>
