<svg width="20" height="20" viewBox="0 0 20 20" fill="none" xmlns="http://www.w3.org/2000/svg">
<ellipse cx="10.0001" cy="15.4544" rx="0.909091" ry="0.909091" transform="rotate(180 10.0001 15.4544)" fill="#F6F6F6"/>
<ellipse cx="10.0001" cy="4.54557" rx="0.909091" ry="0.909091" transform="rotate(90 10.0001 4.54557)" fill="#F6F6F6"/>
<ellipse cx="8.18173" cy="13.6363" rx="0.909091" ry="0.909091" transform="rotate(180 8.18173 13.6363)" fill="#F6F6F6"/>
<ellipse cx="8.18173" cy="6.36368" rx="0.909091" ry="0.909091" transform="rotate(90 8.18173 6.36368)" fill="#F6F6F6"/>
<circle cx="6.36361" cy="11.8182" r="0.909091" transform="rotate(180 6.36361 11.8182)" fill="#F6F6F6"/>
<ellipse cx="6.36361" cy="8.1818" rx="0.909091" ry="0.909091" transform="rotate(90 6.36361 8.1818)" fill="#F6F6F6"/>
<ellipse cx="4.5455" cy="10.0001" rx="0.909091" ry="0.909091" transform="rotate(180 4.5455 10.0001)" fill="#F6F6F6"/>
<ellipse cx="8.18173" cy="10.0001" rx="0.909091" ry="0.909091" transform="rotate(180 8.18173 10.0001)" fill="#F6F6F6"/>
<circle cx="11.8182" cy="10.0001" r="0.909091" transform="rotate(180 11.8182 10.0001)" fill="#F6F6F6"/>
<ellipse cx="15.4544" cy="10.0001" rx="0.909091" ry="0.909091" transform="rotate(180 15.4544 10.0001)" fill="#F6F6F6"/>
<circle cx="13.6363" cy="10.0001" r="0.909091" transform="rotate(180 13.6363 10.0001)" fill="#F6F6F6"/>
<circle cx="10.0001" cy="10.0001" r="0.909091" transform="rotate(180 10.0001 10.0001)" fill="#F6F6F6"/>
<circle cx="6.36361" cy="10.0001" r="0.909091" transform="rotate(180 6.36361 10.0001)" fill="#F6F6F6"/>
</svg>
