<svg width="16" height="16" viewBox="0 0 16 16" fill="none" xmlns="http://www.w3.org/2000/svg">
<circle cx="2.18186" cy="12.3637" r="0.727273" fill="#F6F6F6"/>
<circle cx="2.18186" cy="13.8182" r="0.727273" fill="#F6F6F6"/>
<circle cx="6.54539" cy="13.8182" r="0.727273" fill="#F6F6F6"/>
<circle cx="5.0908" cy="12.3637" r="0.727273" fill="#F6F6F6"/>
<circle cx="9.45457" cy="13.8182" r="0.727273" fill="#F6F6F6"/>
<circle cx="10.9092" cy="12.3637" r="0.727273" fill="#F6F6F6"/>
<circle cx="5.0908" cy="10.9092" r="0.727273" fill="#F6F6F6"/>
<circle cx="7.99998" cy="10.9092" r="0.727273" fill="#F6F6F6"/>
<circle cx="6.54539" cy="10.9092" r="0.727273" fill="#F6F6F6"/>
<circle cx="9.45457" cy="10.9092" r="0.727273" fill="#F6F6F6"/>
<circle cx="10.9092" cy="10.9092" r="0.727273" fill="#F6F6F6"/>
<circle cx="12.3637" cy="10.9092" r="0.727273" fill="#F6F6F6"/>
<circle cx="13.8181" cy="12.3637" r="0.727273" fill="#F6F6F6"/>
<circle cx="3.63645" cy="10.9092" r="0.727273" fill="#F6F6F6"/>
<circle cx="13.8181" cy="13.8182" r="0.727273" fill="#F6F6F6"/>
<circle cx="2.18186" cy="10.9092" r="0.727273" fill="#F6F6F6"/>
<circle cx="13.8181" cy="10.9092" r="0.727273" fill="#F6F6F6"/>
<circle cx="0.727273" cy="0.727273" r="0.727273" transform="matrix(1 0 0 -1 11.6365 2.90918)" fill="#F6F6F6"/>
<circle cx="3.63645" cy="2.18186" r="0.727273" fill="#F6F6F6"/>
<circle cx="3.63645" cy="8.0001" r="0.727273" fill="#F6F6F6"/>
<circle cx="3.63645" cy="6.54551" r="0.727273" fill="#F6F6F6"/>
<circle cx="3.63645" cy="9.45457" r="0.727273" fill="#F6F6F6"/>
<circle cx="6.54539" cy="9.45457" r="0.727273" fill="#F6F6F6"/>
<circle cx="6.54539" cy="8.0001" r="0.727273" fill="#F6F6F6"/>
<circle cx="6.54539" cy="5.09092" r="0.727273" fill="#F6F6F6"/>
<circle cx="9.45457" cy="8.0001" r="0.727273" fill="#F6F6F6"/>
<circle cx="7.99998" cy="8.0001" r="0.727273" fill="#F6F6F6"/>
<circle cx="9.45457" cy="6.54551" r="0.727273" fill="#F6F6F6"/>
<circle cx="7.99998" cy="6.54551" r="0.727273" fill="#F6F6F6"/>
<circle cx="7.99998" cy="5.09092" r="0.727273" fill="#F6F6F6"/>
<circle cx="6.54539" cy="6.54551" r="0.727273" fill="#F6F6F6"/>
<circle cx="9.45457" cy="5.09092" r="0.727273" fill="#F6F6F6"/>
<circle cx="7.99998" cy="9.45457" r="0.727273" fill="#F6F6F6"/>
<circle cx="9.45457" cy="9.45457" r="0.727273" fill="#F6F6F6"/>
<circle cx="12.3637" cy="9.45457" r="0.727273" fill="#F6F6F6"/>
<circle cx="10.9092" cy="6.54551" r="0.727273" fill="#F6F6F6"/>
<circle cx="5.0908" cy="6.54551" r="0.727273" fill="#F6F6F6"/>
<circle cx="5.0908" cy="3.63645" r="0.727273" fill="#F6F6F6"/>
<circle cx="10.9092" cy="3.63645" r="0.727273" fill="#F6F6F6"/>
<circle cx="12.3637" cy="8.0001" r="0.727273" fill="#F6F6F6"/>
<circle cx="12.3637" cy="6.54551" r="0.727273" fill="#F6F6F6"/>
</svg>
