<svg width="20" height="20" viewBox="0 0 20 20" fill="none" xmlns="http://www.w3.org/2000/svg">
<circle cx="17.2727" cy="10" r="0.909091" fill="#F6F6F6"/>
<circle cx="17.2727" cy="11.8181" r="0.909091" fill="#F6F6F6"/>
<circle cx="2.72733" cy="11.8181" r="0.909091" fill="#F6F6F6"/>
<circle cx="17.2727" cy="8.1818" r="0.909091" fill="#F6F6F6"/>
<circle cx="17.2727" cy="6.36368" r="0.909091" fill="#F6F6F6"/>
<circle cx="17.2727" cy="4.54544" r="0.909091" fill="#F6F6F6"/>
<circle cx="4.54544" cy="2.72733" r="0.909091" fill="#F6F6F6"/>
<circle cx="4.54544" cy="13.6364" r="0.909091" fill="#F6F6F6"/>
<circle cx="4.54544" cy="11.8181" r="0.909091" fill="#F6F6F6"/>
<circle cx="4.54544" cy="10" r="0.909091" fill="#F6F6F6"/>
<circle cx="4.54544" cy="8.1818" r="0.909091" fill="#F6F6F6"/>
<circle cx="4.54544" cy="6.36368" r="0.909091" fill="#F6F6F6"/>
<circle cx="4.54544" cy="4.54544" r="0.909091" fill="#F6F6F6"/>
<circle cx="6.36368" cy="2.72733" r="0.909091" fill="#F6F6F6"/>
<circle cx="6.36368" cy="13.6364" r="0.909091" fill="#F6F6F6"/>
<circle cx="6.36368" cy="11.8181" r="0.909091" fill="#F6F6F6"/>
<circle cx="6.36368" cy="10" r="0.909091" fill="#F6F6F6"/>
<circle cx="6.36368" cy="8.1818" r="0.909091" fill="#F6F6F6"/>
<circle cx="6.36368" cy="4.54544" r="0.909091" fill="#F6F6F6"/>
<circle cx="8.1818" cy="2.72733" r="0.909091" fill="#F6F6F6"/>
<circle cx="8.1818" cy="13.6364" r="0.909091" fill="#F6F6F6"/>
<circle cx="8.1818" cy="11.8181" r="0.909091" fill="#F6F6F6"/>
<circle cx="8.1818" cy="10" r="0.909091" fill="#F6F6F6"/>
<circle cx="8.1818" cy="8.1818" r="0.909091" fill="#F6F6F6"/>
<circle cx="8.1818" cy="6.36368" r="0.909091" fill="#F6F6F6"/>
<circle cx="8.1818" cy="4.54544" r="0.909091" fill="#F6F6F6"/>
<circle cx="10" cy="15.4545" r="0.909091" fill="#F6F6F6"/>
<circle cx="11.8181" cy="17.2727" r="0.909091" fill="#F6F6F6"/>
<circle cx="13.6364" cy="15.4545" r="0.909091" fill="#F6F6F6"/>
<circle cx="11.8181" cy="15.4545" r="0.909091" fill="#F6F6F6"/>
<circle cx="11.8181" cy="13.6364" r="0.909091" fill="#F6F6F6"/>
<circle cx="11.8181" cy="11.8181" r="0.909091" fill="#F6F6F6"/>
<circle cx="11.8181" cy="8.1818" r="0.909091" fill="#F6F6F6"/>
<circle cx="11.8181" cy="4.54544" r="0.909091" fill="#F6F6F6"/>
<circle cx="13.6364" cy="13.6364" r="0.909091" fill="#F6F6F6"/>
<circle cx="13.6364" cy="11.8181" r="0.909091" fill="#F6F6F6"/>
<circle cx="13.6364" cy="8.1818" r="0.909091" fill="#F6F6F6"/>
<circle cx="13.6364" cy="4.54544" r="0.909091" fill="#F6F6F6"/>
<circle cx="10" cy="13.6364" r="0.909091" fill="#F6F6F6"/>
<circle cx="10" cy="11.8181" r="0.909091" fill="#F6F6F6"/>
<circle cx="10" cy="10" r="0.909091" fill="#F6F6F6"/>
<circle cx="10" cy="8.1818" r="0.909091" fill="#F6F6F6"/>
<circle cx="10" cy="4.54544" r="0.909091" fill="#F6F6F6"/>
<circle cx="10" cy="2.72733" r="0.909091" fill="#F6F6F6"/>
<circle cx="11.8181" cy="2.72733" r="0.909091" fill="#F6F6F6"/>
<circle cx="13.6364" cy="2.72733" r="0.909091" fill="#F6F6F6"/>
<circle cx="15.4545" cy="2.72733" r="0.909091" fill="#F6F6F6"/>
<circle cx="15.4545" cy="13.6364" r="0.909091" fill="#F6F6F6"/>
<circle cx="15.4545" cy="11.8181" r="0.909091" fill="#F6F6F6"/>
<circle cx="15.4545" cy="10" r="0.909091" fill="#F6F6F6"/>
<circle cx="15.4545" cy="8.1818" r="0.909091" fill="#F6F6F6"/>
<circle cx="15.4545" cy="6.36368" r="0.909091" fill="#F6F6F6"/>
<circle cx="15.4545" cy="4.54544" r="0.909091" fill="#F6F6F6"/>
<circle cx="2.72733" cy="10" r="0.909091" fill="#F6F6F6"/>
<circle cx="2.72733" cy="8.1818" r="0.909091" fill="#F6F6F6"/>
<circle cx="2.72733" cy="6.36368" r="0.909091" fill="#F6F6F6"/>
<circle cx="2.72733" cy="4.54544" r="0.909091" fill="#F6F6F6"/>
</svg>
