<svg width="22" height="22" viewBox="0 0 22 22" fill="none" xmlns="http://www.w3.org/2000/svg">
<circle cx="5" cy="5" r="1" fill="#F6F6F6"/>
<circle cx="5" cy="17" r="1" transform="rotate(-90 5 17)" fill="#F6F6F6"/>
<circle cx="7" cy="7" r="1" fill="#F6F6F6"/>
<ellipse cx="7" cy="15" rx="1" ry="1" transform="rotate(-90 7 15)" fill="#F6F6F6"/>
<circle cx="9" cy="9" r="1" fill="#F6F6F6"/>
<circle cx="9" cy="13" r="1" transform="rotate(-90 9 13)" fill="#F6F6F6"/>
<circle cx="11" cy="11" r="1" fill="#F6F6F6"/>
<circle cx="13" cy="13" r="1" fill="#F6F6F6"/>
<circle cx="13" cy="9" r="1" transform="rotate(-90 13 9)" fill="#F6F6F6"/>
<circle cx="15" cy="15" r="1" fill="#F6F6F6"/>
<ellipse cx="15" cy="7" rx="1" ry="1" transform="rotate(-90 15 7)" fill="#F6F6F6"/>
<circle cx="17" cy="17" r="1" fill="#F6F6F6"/>
<circle cx="17" cy="5" r="1" transform="rotate(-90 17 5)" fill="#F6F6F6"/>
</svg>
