<svg width="23" height="22" viewBox="0 0 23 22" fill="none" xmlns="http://www.w3.org/2000/svg">
<circle cx="17.8179" cy="11" r="1" fill="#F6F6F6"/>
<circle cx="13.8179" cy="11" r="1" fill="#F6F6F6"/>
<circle cx="9.81787" cy="11" r="1" fill="#F6F6F6"/>
<circle cx="5.81787" cy="11" r="1" fill="#F6F6F6"/>
<ellipse cx="7.81787" cy="11" rx="1" ry="1" fill="#F6F6F6"/>
<circle cx="11.8179" cy="11" r="1" fill="#F6F6F6"/>
<ellipse cx="15.8179" cy="11" rx="1" ry="1" fill="#F6F6F6"/>
<circle cx="17.8179" cy="5" r="1" fill="#F6F6F6"/>
<circle cx="13.8179" cy="5" r="1" fill="#F6F6F6"/>
<circle cx="9.81787" cy="5" r="1" fill="#F6F6F6"/>
<circle cx="5.81787" cy="5" r="1" fill="#F6F6F6"/>
<ellipse cx="7.81787" cy="5" rx="1" ry="1" fill="#F6F6F6"/>
<circle cx="11.8179" cy="5" r="1" fill="#F6F6F6"/>
<ellipse cx="15.8179" cy="5" rx="1" ry="1" fill="#F6F6F6"/>
<circle cx="17.8179" cy="17" r="1" fill="#F6F6F6"/>
<circle cx="13.8179" cy="17" r="1" fill="#F6F6F6"/>
<circle cx="9.81787" cy="17" r="1" fill="#F6F6F6"/>
<circle cx="5.81787" cy="17" r="1" fill="#F6F6F6"/>
<ellipse cx="7.81787" cy="17" rx="1" ry="1" fill="#F6F6F6"/>
<circle cx="11.8179" cy="17" r="1" fill="#F6F6F6"/>
<ellipse cx="15.8179" cy="17" rx="1" ry="1" fill="#F6F6F6"/>
</svg>
