<svg width="24" height="24" viewBox="0 0 24 24" fill="none" xmlns="http://www.w3.org/2000/svg">
<circle cx="9.61041" cy="5.68829" r="1.05194" fill="#F6F6F6"/>
<circle cx="9.63984" cy="7.78486" r="1.08137" fill="#F6F6F6"/>
<circle cx="13.8183" cy="9.89606" r="1.05194" fill="#F6F6F6"/>
<circle cx="15.9222" cy="11.9997" r="1.05194" fill="#F6F6F6"/>
<circle cx="13.8183" cy="14.1039" r="1.05194" fill="#F6F6F6"/>
<circle cx="18.0261" cy="7.7923" r="1.05194" fill="#F6F6F6"/>
<circle cx="20.1299" cy="9.89642" r="1.05194" fill="#F6F6F6"/>
<circle cx="20.1299" cy="11.9997" r="1.05194" fill="#F6F6F6"/>
<circle cx="20.1299" cy="14.1037" r="1.05194" fill="#F6F6F6"/>
<circle cx="18.0261" cy="16.2077" r="1.05194" fill="#F6F6F6"/>
<circle cx="7.50677" cy="7.7923" r="1.05194" fill="#F6F6F6"/>
<circle cx="9.61041" cy="9.89642" r="1.05194" fill="#F6F6F6"/>
<circle cx="7.50677" cy="9.89642" r="1.05194" fill="#F6F6F6"/>
<circle cx="5.40289" cy="9.89642" r="1.05194" fill="#F6F6F6"/>
<circle cx="3.29877" cy="9.89642" r="1.05194" fill="#F6F6F6"/>
<circle cx="9.63984" cy="12.0074" r="1.08137" fill="#F6F6F6"/>
<circle cx="7.50677" cy="11.9997" r="1.05194" fill="#F6F6F6"/>
<circle cx="5.40289" cy="11.9997" r="1.05194" fill="#F6F6F6"/>
<circle cx="3.29877" cy="11.9997" r="1.05194" fill="#F6F6F6"/>
<circle cx="9.61041" cy="14.1037" r="1.05194" fill="#F6F6F6"/>
<circle cx="7.50677" cy="14.1037" r="1.05194" fill="#F6F6F6"/>
<circle cx="5.40289" cy="14.1037" r="1.05194" fill="#F6F6F6"/>
<circle cx="3.29877" cy="14.1037" r="1.05194" fill="#F6F6F6"/>
<circle cx="9.61041" cy="16.2077" r="1.05194" fill="#F6F6F6"/>
<circle cx="7.50677" cy="16.2077" r="1.05194" fill="#F6F6F6"/>
<circle cx="9.61041" cy="18.3116" r="1.05194" fill="#F6F6F6"/>
</svg>
