<svg width="16" height="16" viewBox="0 0 16 16" fill="none" xmlns="http://www.w3.org/2000/svg">
<ellipse cx="13.8181" cy="9.45457" rx="0.727273" ry="0.727273" fill="#F6F6F6"/>
<ellipse cx="13.8181" cy="7.99998" rx="0.727273" ry="0.727273" fill="#F6F6F6"/>
<ellipse cx="13.8181" cy="6.54551" rx="0.727273" ry="0.727273" fill="#F6F6F6"/>
<circle cx="5.0908" cy="2.18186" r="0.727273" fill="#F6F6F6"/>
<circle cx="3.63645" cy="2.18186" r="0.727273" fill="#F6F6F6"/>
<ellipse cx="5.0908" cy="12.3636" rx="0.727273" ry="0.727273" fill="#F6F6F6"/>
<circle cx="5.0908" cy="3.63633" r="0.727273" fill="#F6F6F6"/>
<ellipse cx="5.0908" cy="13.8182" rx="0.727273" ry="0.727273" fill="#F6F6F6"/>
<ellipse cx="3.63645" cy="13.8182" rx="0.727273" ry="0.727273" fill="#F6F6F6"/>
<circle cx="7.99998" cy="2.18186" r="0.727273" fill="#F6F6F6"/>
<ellipse cx="7.99998" cy="12.3636" rx="0.727273" ry="0.727273" fill="#F6F6F6"/>
<circle cx="7.99998" cy="3.63633" r="0.727273" fill="#F6F6F6"/>
<ellipse cx="7.99998" cy="13.8182" rx="0.727273" ry="0.727273" fill="#F6F6F6"/>
<ellipse cx="10.9092" cy="2.18186" rx="0.727273" ry="0.727273" fill="#F6F6F6"/>
<ellipse cx="12.3637" cy="2.18186" rx="0.727273" ry="0.727273" fill="#F6F6F6"/>
<ellipse cx="10.9092" cy="12.3636" rx="0.727273" ry="0.727273" fill="#F6F6F6"/>
<ellipse cx="10.9092" cy="3.63633" rx="0.727273" ry="0.727273" fill="#F6F6F6"/>
<circle cx="10.9092" cy="13.8182" r="0.727273" fill="#F6F6F6"/>
<ellipse cx="12.3637" cy="13.8182" rx="0.727273" ry="0.727273" fill="#F6F6F6"/>
<circle cx="3.63645" cy="5.09092" r="0.727273" fill="#F6F6F6"/>
<ellipse cx="3.63645" cy="10.909" rx="0.727273" ry="0.727273" fill="#F6F6F6"/>
<ellipse cx="3.63645" cy="9.45457" rx="0.727273" ry="0.727273" fill="#F6F6F6"/>
<circle cx="3.63645" cy="7.99998" r="0.727273" fill="#F6F6F6"/>
<circle cx="3.63645" cy="6.54551" r="0.727273" fill="#F6F6F6"/>
<circle cx="5.0908" cy="5.09092" r="0.727273" fill="#F6F6F6"/>
<ellipse cx="5.0908" cy="10.909" rx="0.727273" ry="0.727273" fill="#F6F6F6"/>
<ellipse cx="5.0908" cy="9.45457" rx="0.727273" ry="0.727273" fill="#F6F6F6"/>
<circle cx="5.0908" cy="7.99998" r="0.727273" fill="#F6F6F6"/>
<circle cx="5.0908" cy="6.54551" r="0.727273" fill="#F6F6F6"/>
<circle cx="6.54539" cy="5.09092" r="0.727273" fill="#F6F6F6"/>
<ellipse cx="6.54539" cy="10.909" rx="0.727273" ry="0.727273" fill="#F6F6F6"/>
<ellipse cx="6.54539" cy="9.45457" rx="0.727273" ry="0.727273" fill="#F6F6F6"/>
<circle cx="6.54539" cy="7.99998" r="0.727273" fill="#F6F6F6"/>
<circle cx="6.54539" cy="6.54551" r="0.727273" fill="#F6F6F6"/>
<circle cx="7.99998" cy="5.09092" r="0.727273" fill="#F6F6F6"/>
<ellipse cx="7.99998" cy="10.909" rx="0.727273" ry="0.727273" fill="#F6F6F6"/>
<ellipse cx="7.99998" cy="9.45457" rx="0.727273" ry="0.727273" fill="#F6F6F6"/>
<circle cx="7.99998" cy="7.99998" r="0.727273" fill="#F6F6F6"/>
<circle cx="7.99998" cy="6.54551" r="0.727273" fill="#F6F6F6"/>
<ellipse cx="9.45457" cy="5.09092" rx="0.727273" ry="0.727273" fill="#F6F6F6"/>
<ellipse cx="9.45457" cy="10.909" rx="0.727273" ry="0.727273" fill="#F6F6F6"/>
<circle cx="9.45457" cy="9.45457" r="0.727273" fill="#F6F6F6"/>
<ellipse cx="9.45457" cy="7.99998" rx="0.727273" ry="0.727273" fill="#F6F6F6"/>
<ellipse cx="9.45457" cy="6.54551" rx="0.727273" ry="0.727273" fill="#F6F6F6"/>
<ellipse cx="10.9092" cy="5.09092" rx="0.727273" ry="0.727273" fill="#F6F6F6"/>
<circle cx="10.9092" cy="10.909" r="0.727273" fill="#F6F6F6"/>
<ellipse cx="10.9092" cy="9.45457" rx="0.727273" ry="0.727273" fill="#F6F6F6"/>
<ellipse cx="10.9092" cy="7.99998" rx="0.727273" ry="0.727273" fill="#F6F6F6"/>
<ellipse cx="10.9092" cy="6.54551" rx="0.727273" ry="0.727273" fill="#F6F6F6"/>
<ellipse cx="12.3637" cy="5.09092" rx="0.727273" ry="0.727273" fill="#F6F6F6"/>
<ellipse cx="12.3637" cy="10.909" rx="0.727273" ry="0.727273" fill="#F6F6F6"/>
<circle cx="12.3637" cy="9.45457" r="0.727273" fill="#F6F6F6"/>
<ellipse cx="12.3637" cy="7.99998" rx="0.727273" ry="0.727273" fill="#F6F6F6"/>
<ellipse cx="12.3637" cy="6.54551" rx="0.727273" ry="0.727273" fill="#F6F6F6"/>
<ellipse cx="2.18186" cy="9.45457" rx="0.727273" ry="0.727273" fill="#F6F6F6"/>
<circle cx="2.18186" cy="7.99998" r="0.727273" fill="#F6F6F6"/>
<circle cx="2.18186" cy="6.54551" r="0.727273" fill="#F6F6F6"/>
</svg>
