<svg width="98" height="82" viewBox="0 0 98 82" fill="none" xmlns="http://www.w3.org/2000/svg">
<rect y="24" width="2" height="2" fill="#0004FF"/>
<rect y="28" width="2" height="2" fill="#0004FF"/>
<rect y="40" width="2" height="2" fill="#0004FF"/>
<rect y="44" width="2" height="2" fill="#0004FF"/>
<rect x="4" y="20" width="2" height="2" fill="#0004FF"/>
<rect x="4" y="24" width="2" height="2" fill="#0004FF"/>
<rect x="4" y="28" width="2" height="2" fill="#0004FF"/>
<rect x="4" y="40" width="2" height="2" fill="#0004FF"/>
<rect x="4" y="44" width="2" height="2" fill="#0004FF"/>
<rect x="4" y="48" width="2" height="2" fill="#0004FF"/>
<rect x="8" y="12" width="2" height="2" fill="#0004FF"/>
<rect x="8" y="16" width="2" height="2" fill="#0004FF"/>
<rect x="8" y="20" width="2" height="2" fill="#0004FF"/>
<rect x="8" y="24" width="2" height="2" fill="#0004FF"/>
<rect x="8" y="28" width="2" height="2" fill="#0004FF"/>
<rect x="8" y="32" width="2" height="2" fill="#0004FF"/>
<rect x="8" y="36" width="2" height="2" fill="#0004FF"/>
<rect x="8" y="40" width="2" height="2" fill="#0004FF"/>
<rect x="8" y="44" width="2" height="2" fill="#0004FF"/>
<rect x="8" y="48" width="2" height="2" fill="#0004FF"/>
<rect x="8" y="52" width="2" height="2" fill="#0004FF"/>
<rect x="8" y="56" width="2" height="2" fill="#0004FF"/>
<rect x="8" y="60" width="2" height="2" fill="#0004FF"/>
<rect x="8" y="64" width="2" height="2" fill="#0004FF"/>
<rect x="8" y="68" width="2" height="2" fill="#0004FF"/>
<rect x="12" y="8" width="2" height="2" fill="#0004FF"/>
<rect x="12" y="12" width="2" height="2" fill="#0004FF"/>
<rect x="12" y="16" width="2" height="2" fill="#0004FF"/>
<rect x="12" y="20" width="2" height="2" fill="#0004FF"/>
<rect x="12" y="24" width="2" height="2" fill="#0004FF"/>
<rect x="12" y="28" width="2" height="2" fill="#0004FF"/>
<rect x="12" y="32" width="2" height="2" fill="#0004FF"/>
<rect x="12" y="36" width="2" height="2" fill="#0004FF"/>
<rect x="12" y="40" width="2" height="2" fill="#0004FF"/>
<rect x="12" y="44" width="2" height="2" fill="#0004FF"/>
<rect x="12" y="48" width="2" height="2" fill="#0004FF"/>
<rect x="12" y="52" width="2" height="2" fill="#0004FF"/>
<rect x="12" y="56" width="2" height="2" fill="#0004FF"/>
<rect x="12" y="60" width="2" height="2" fill="#0004FF"/>
<rect x="12" y="64" width="2" height="2" fill="#0004FF"/>
<rect x="16" y="20" width="2" height="2" fill="#0004FF"/>
<rect x="16" y="24" width="2" height="2" fill="#0004FF"/>
<rect x="16" y="28" width="2" height="2" fill="#0004FF"/>
<rect x="16" y="32" width="2" height="2" fill="#0004FF"/>
<rect x="16" y="36" width="2" height="2" fill="#0004FF"/>
<rect x="16" y="40" width="2" height="2" fill="#0004FF"/>
<rect x="16" y="44" width="2" height="2" fill="#0004FF"/>
<rect x="16" y="48" width="2" height="2" fill="#0004FF"/>
<rect x="16" y="52" width="2" height="2" fill="#0004FF"/>
<rect x="16" y="56" width="2" height="2" fill="#0004FF"/>
<rect x="16" y="60" width="2" height="2" fill="#0004FF"/>
<rect x="16" y="64" width="2" height="2" fill="#0004FF"/>
<rect x="16" y="68" width="2" height="2" fill="#0004FF"/>
<rect x="16" y="72" width="2" height="2" fill="#0004FF"/>
<rect x="20" y="12" width="2" height="2" fill="#0004FF"/>
<rect x="20" y="16" width="2" height="2" fill="#0004FF"/>
<rect x="20" y="20" width="2" height="2" fill="#0004FF"/>
<rect x="20" y="24" width="2" height="2" fill="#0004FF"/>
<rect x="20" y="28" width="2" height="2" fill="#0004FF"/>
<rect x="20" y="32" width="2" height="2" fill="#0004FF"/>
<rect x="20" y="36" width="2" height="2" fill="#0004FF"/>
<rect x="20" y="40" width="2" height="2" fill="#0004FF"/>
<rect x="20" y="44" width="2" height="2" fill="#0004FF"/>
<rect x="20" y="48" width="2" height="2" fill="#0004FF"/>
<rect x="20" y="52" width="2" height="2" fill="#0004FF"/>
<rect x="20" y="56" width="2" height="2" fill="#0004FF"/>
<rect x="20" y="60" width="2" height="2" fill="#0004FF"/>
<rect x="20" y="64" width="2" height="2" fill="#0004FF"/>
<rect x="20" y="68" width="2" height="2" fill="#0004FF"/>
<rect x="20" y="72" width="2" height="2" fill="#0004FF"/>
<rect x="24" y="8" width="2" height="2" fill="#0004FF"/>
<rect x="24" y="12" width="2" height="2" fill="#0004FF"/>
<rect x="24" y="16" width="2" height="2" fill="#0004FF"/>
<rect x="24" y="20" width="2" height="2" fill="#0004FF"/>
<rect x="24" y="24" width="2" height="2" fill="#0004FF"/>
<rect x="24" y="28" width="2" height="2" fill="#0004FF"/>
<rect x="24" y="32" width="2" height="2" fill="#0004FF"/>
<rect x="24" y="36" width="2" height="2" fill="#0004FF"/>
<rect x="24" y="40" width="2" height="2" fill="#0004FF"/>
<rect x="24" y="44" width="2" height="2" fill="#0004FF"/>
<rect x="24" y="48" width="2" height="2" fill="#0004FF"/>
<rect x="24" y="52" width="2" height="2" fill="#0004FF"/>
<rect x="24" y="56" width="2" height="2" fill="#0004FF"/>
<rect x="24" y="60" width="2" height="2" fill="#0004FF"/>
<rect x="24" y="64" width="2" height="2" fill="#0004FF"/>
<rect x="24" y="68" width="2" height="2" fill="#0004FF"/>
<rect x="24" y="72" width="2" height="2" fill="#0004FF"/>
<rect x="24" y="76" width="2" height="2" fill="#0004FF"/>
<rect x="28" y="4" width="2" height="2" fill="#0004FF"/>
<rect x="28" y="16" width="2" height="2" fill="#0004FF"/>
<rect x="28" y="20" width="2" height="2" fill="#0004FF"/>
<rect x="28" y="24" width="2" height="2" fill="#0004FF"/>
<rect x="28" y="28" width="2" height="2" fill="#0004FF"/>
<rect x="28" y="32" width="2" height="2" fill="#0004FF"/>
<rect x="28" y="36" width="2" height="2" fill="#0004FF"/>
<rect x="28" y="40" width="2" height="2" fill="#0004FF"/>
<rect x="28" y="44" width="2" height="2" fill="#0004FF"/>
<rect x="28" y="48" width="2" height="2" fill="#0004FF"/>
<rect x="28" y="52" width="2" height="2" fill="#0004FF"/>
<rect x="28" y="56" width="2" height="2" fill="#0004FF"/>
<rect x="28" y="60" width="2" height="2" fill="#0004FF"/>
<rect x="28" y="64" width="2" height="2" fill="#0004FF"/>
<rect x="28" y="68" width="2" height="2" fill="#0004FF"/>
<rect x="28" y="72" width="2" height="2" fill="#0004FF"/>
<rect x="32" width="2" height="2" fill="#0004FF"/>
<rect x="32" y="4" width="2" height="2" fill="#0004FF"/>
<rect x="32" y="12" width="2" height="2" fill="#0004FF"/>
<rect x="32" y="16" width="2" height="2" fill="#0004FF"/>
<rect x="32" y="20" width="2" height="2" fill="#0004FF"/>
<rect x="32" y="24" width="2" height="2" fill="#0004FF"/>
<rect x="32" y="28" width="2" height="2" fill="#0004FF"/>
<rect x="32" y="32" width="2" height="2" fill="#0004FF"/>
<rect x="32" y="36" width="2" height="2" fill="#0004FF"/>
<rect x="32" y="40" width="2" height="2" fill="#0004FF"/>
<rect x="32" y="44" width="2" height="2" fill="#0004FF"/>
<rect x="32" y="48" width="2" height="2" fill="#0004FF"/>
<rect x="32" y="52" width="2" height="2" fill="#0004FF"/>
<rect x="32" y="56" width="2" height="2" fill="#0004FF"/>
<rect x="32" y="60" width="2" height="2" fill="#0004FF"/>
<rect x="32" y="64" width="2" height="2" fill="#0004FF"/>
<rect x="32" y="68" width="2" height="2" fill="#0004FF"/>
<rect x="32" y="72" width="2" height="2" fill="#0004FF"/>
<rect x="36" width="2" height="2" fill="#0004FF"/>
<rect x="36" y="4" width="2" height="2" fill="#0004FF"/>
<rect x="36" y="12" width="2" height="2" fill="#0004FF"/>
<rect x="36" y="16" width="2" height="2" fill="#0004FF"/>
<rect x="36" y="20" width="2" height="2" fill="#0004FF"/>
<rect x="36" y="24" width="2" height="2" fill="#0004FF"/>
<rect x="36" y="28" width="2" height="2" fill="#0004FF"/>
<rect x="36" y="32" width="2" height="2" fill="#0004FF"/>
<rect x="36" y="36" width="2" height="2" fill="#0004FF"/>
<rect x="36" y="40" width="2" height="2" fill="#0004FF"/>
<rect x="36" y="44" width="2" height="2" fill="#0004FF"/>
<rect x="36" y="48" width="2" height="2" fill="#0004FF"/>
<rect x="36" y="52" width="2" height="2" fill="#0004FF"/>
<rect x="36" y="56" width="2" height="2" fill="#0004FF"/>
<rect x="36" y="60" width="2" height="2" fill="#0004FF"/>
<rect x="36" y="64" width="2" height="2" fill="#0004FF"/>
<rect x="36" y="68" width="2" height="2" fill="#0004FF"/>
<rect x="40" width="2" height="2" fill="#0004FF"/>
<rect x="40" y="4" width="2" height="2" fill="#0004FF"/>
<rect x="40" y="8" width="2" height="2" fill="#0004FF"/>
<rect x="40" y="12" width="2" height="2" fill="#0004FF"/>
<rect x="40" y="16" width="2" height="2" fill="#0004FF"/>
<rect x="40" y="20" width="2" height="2" fill="#0004FF"/>
<rect x="40" y="24" width="2" height="2" fill="#0004FF"/>
<rect x="40" y="28" width="2" height="2" fill="#0004FF"/>
<rect x="40" y="32" width="2" height="2" fill="#0004FF"/>
<rect x="40" y="36" width="2" height="2" fill="#0004FF"/>
<rect x="40" y="40" width="2" height="2" fill="#0004FF"/>
<rect x="40" y="44" width="2" height="2" fill="#0004FF"/>
<rect x="40" y="48" width="2" height="2" fill="#0004FF"/>
<rect x="40" y="52" width="2" height="2" fill="#0004FF"/>
<rect x="40" y="56" width="2" height="2" fill="#0004FF"/>
<rect x="40" y="60" width="2" height="2" fill="#0004FF"/>
<rect x="40" y="64" width="2" height="2" fill="#0004FF"/>
<rect x="40" y="68" width="2" height="2" fill="#0004FF"/>
<rect x="40" y="72" width="2" height="2" fill="#0004FF"/>
<rect x="44" y="4" width="2" height="2" fill="#0004FF"/>
<rect x="44" y="12" width="2" height="2" fill="#0004FF"/>
<rect x="44" y="16" width="2" height="2" fill="#0004FF"/>
<rect x="44" y="20" width="2" height="2" fill="#0004FF"/>
<rect x="44" y="24" width="2" height="2" fill="#0004FF"/>
<rect x="44" y="28" width="2" height="2" fill="#0004FF"/>
<rect x="44" y="32" width="2" height="2" fill="#0004FF"/>
<rect x="44" y="36" width="2" height="2" fill="#0004FF"/>
<rect x="44" y="40" width="2" height="2" fill="#0004FF"/>
<rect x="44" y="44" width="2" height="2" fill="#0004FF"/>
<rect x="44" y="48" width="2" height="2" fill="#0004FF"/>
<rect x="44" y="52" width="2" height="2" fill="#0004FF"/>
<rect x="44" y="56" width="2" height="2" fill="#0004FF"/>
<rect x="44" y="60" width="2" height="2" fill="#0004FF"/>
<rect x="44" y="64" width="2" height="2" fill="#0004FF"/>
<rect x="48" y="8" width="2" height="2" fill="#0004FF"/>
<rect x="48" y="12" width="2" height="2" fill="#0004FF"/>
<rect x="48" y="20" width="2" height="2" fill="#0004FF"/>
<rect x="48" y="24" width="2" height="2" fill="#0004FF"/>
<rect x="48" y="28" width="2" height="2" fill="#0004FF"/>
<rect x="48" y="32" width="2" height="2" fill="#0004FF"/>
<rect x="48" y="36" width="2" height="2" fill="#0004FF"/>
<rect x="48" y="40" width="2" height="2" fill="#0004FF"/>
<rect x="48" y="44" width="2" height="2" fill="#0004FF"/>
<rect x="48" y="64" width="2" height="2" fill="#0004FF"/>
<rect x="52" y="8" width="2" height="2" fill="#0004FF"/>
<rect x="52" y="12" width="2" height="2" fill="#0004FF"/>
<rect x="52" y="20" width="2" height="2" fill="#0004FF"/>
<rect x="52" y="24" width="2" height="2" fill="#0004FF"/>
<rect x="52" y="28" width="2" height="2" fill="#0004FF"/>
<rect x="52" y="32" width="2" height="2" fill="#0004FF"/>
<rect x="52" y="36" width="2" height="2" fill="#0004FF"/>
<rect x="52" y="40" width="2" height="2" fill="#0004FF"/>
<rect x="52" y="44" width="2" height="2" fill="#0004FF"/>
<rect x="56" y="8" width="2" height="2" fill="#0004FF"/>
<rect x="56" y="12" width="2" height="2" fill="#0004FF"/>
<rect x="56" y="16" width="2" height="2" fill="#0004FF"/>
<rect x="56" y="20" width="2" height="2" fill="#0004FF"/>
<rect x="56" y="24" width="2" height="2" fill="#0004FF"/>
<rect x="56" y="28" width="2" height="2" fill="#0004FF"/>
<rect x="56" y="32" width="2" height="2" fill="#0004FF"/>
<rect x="56" y="36" width="2" height="2" fill="#0004FF"/>
<rect x="56" y="40" width="2" height="2" fill="#0004FF"/>
<rect x="56" y="44" width="2" height="2" fill="#0004FF"/>
<rect x="60" y="12" width="2" height="2" fill="#0004FF"/>
<rect x="60" y="16" width="2" height="2" fill="#0004FF"/>
<rect x="60" y="24" width="2" height="2" fill="#0004FF"/>
<rect x="60" y="28" width="2" height="2" fill="#0004FF"/>
<rect x="60" y="32" width="2" height="2" fill="#0004FF"/>
<rect x="60" y="36" width="2" height="2" fill="#0004FF"/>
<rect x="60" y="40" width="2" height="2" fill="#0004FF"/>
<rect x="60" y="44" width="2" height="2" fill="#0004FF"/>
<rect x="60" y="48" width="2" height="2" fill="#0004FF"/>
<rect x="60" y="52" width="2" height="2" fill="#0004FF"/>
<rect x="64" y="12" width="2" height="2" fill="#0004FF"/>
<rect x="64" y="16" width="2" height="2" fill="#0004FF"/>
<rect x="64" y="24" width="2" height="2" fill="#0004FF"/>
<rect x="64" y="28" width="2" height="2" fill="#0004FF"/>
<rect x="64" y="32" width="2" height="2" fill="#0004FF"/>
<rect x="64" y="36" width="2" height="2" fill="#0004FF"/>
<rect x="64" y="40" width="2" height="2" fill="#0004FF"/>
<rect x="64" y="44" width="2" height="2" fill="#0004FF"/>
<rect x="64" y="48" width="2" height="2" fill="#0004FF"/>
<rect x="64" y="52" width="2" height="2" fill="#0004FF"/>
<rect x="64" y="76" width="2" height="2" fill="#0004FF"/>
<rect x="64" y="80" width="2" height="2" fill="#0004FF"/>
<rect x="68" y="8" width="2" height="2" fill="#0004FF"/>
<rect x="68" y="12" width="2" height="2" fill="#0004FF"/>
<rect x="68" y="20" width="2" height="2" fill="#0004FF"/>
<rect x="68" y="28" width="2" height="2" fill="#0004FF"/>
<rect x="68" y="32" width="2" height="2" fill="#0004FF"/>
<rect x="68" y="36" width="2" height="2" fill="#0004FF"/>
<rect x="68" y="40" width="2" height="2" fill="#0004FF"/>
<rect x="68" y="44" width="2" height="2" fill="#0004FF"/>
<rect x="68" y="48" width="2" height="2" fill="#0004FF"/>
<rect x="68" y="52" width="2" height="2" fill="#0004FF"/>
<rect x="68" y="68" width="2" height="2" fill="#0004FF"/>
<rect x="68" y="72" width="2" height="2" fill="#0004FF"/>
<rect x="72" y="8" width="2" height="2" fill="#0004FF"/>
<rect x="72" y="12" width="2" height="2" fill="#0004FF"/>
<rect x="72" y="16" width="2" height="2" fill="#0004FF"/>
<rect x="72" y="28" width="2" height="2" fill="#0004FF"/>
<rect x="72" y="32" width="2" height="2" fill="#0004FF"/>
<rect x="72" y="36" width="2" height="2" fill="#0004FF"/>
<rect x="72" y="40" width="2" height="2" fill="#0004FF"/>
<rect x="72" y="44" width="2" height="2" fill="#0004FF"/>
<rect x="72" y="48" width="2" height="2" fill="#0004FF"/>
<rect x="72" y="52" width="2" height="2" fill="#0004FF"/>
<rect x="72" y="72" width="2" height="2" fill="#0004FF"/>
<rect x="76" y="8" width="2" height="2" fill="#0004FF"/>
<rect x="76" y="12" width="2" height="2" fill="#0004FF"/>
<rect x="76" y="24" width="2" height="2" fill="#0004FF"/>
<rect x="76" y="28" width="2" height="2" fill="#0004FF"/>
<rect x="76" y="32" width="2" height="2" fill="#0004FF"/>
<rect x="76" y="36" width="2" height="2" fill="#0004FF"/>
<rect x="76" y="40" width="2" height="2" fill="#0004FF"/>
<rect x="76" y="44" width="2" height="2" fill="#0004FF"/>
<rect x="76" y="48" width="2" height="2" fill="#0004FF"/>
<rect x="76" y="52" width="2" height="2" fill="#0004FF"/>
<rect x="76" y="56" width="2" height="2" fill="#0004FF"/>
<rect x="76" y="60" width="2" height="2" fill="#0004FF"/>
<rect x="76" y="64" width="2" height="2" fill="#0004FF"/>
<rect x="76" y="68" width="2" height="2" fill="#0004FF"/>
<rect x="76" y="72" width="2" height="2" fill="#0004FF"/>
<rect x="76" y="76" width="2" height="2" fill="#0004FF"/>
<rect x="80" y="20" width="2" height="2" fill="#0004FF"/>
<rect x="80" y="16" width="2" height="2" fill="#0004FF"/>
<rect x="80" y="12" width="2" height="2" fill="#0004FF"/>
<rect x="80" y="24" width="2" height="2" fill="#0004FF"/>
<rect x="80" y="28" width="2" height="2" fill="#0004FF"/>
<rect x="80" y="32" width="2" height="2" fill="#0004FF"/>
<rect x="80" y="36" width="2" height="2" fill="#0004FF"/>
<rect x="80" y="40" width="2" height="2" fill="#0004FF"/>
<rect x="80" y="44" width="2" height="2" fill="#0004FF"/>
<rect x="80" y="48" width="2" height="2" fill="#0004FF"/>
<rect x="80" y="52" width="2" height="2" fill="#0004FF"/>
<rect x="80" y="64" width="2" height="2" fill="#0004FF"/>
<rect x="80" y="68" width="2" height="2" fill="#0004FF"/>
<rect x="80" y="72" width="2" height="2" fill="#0004FF"/>
<rect x="84" y="20" width="2" height="2" fill="#0004FF"/>
<rect x="84" y="28" width="2" height="2" fill="#0004FF"/>
<rect x="84" y="32" width="2" height="2" fill="#0004FF"/>
<rect x="84" y="36" width="2" height="2" fill="#0004FF"/>
<rect x="84" y="40" width="2" height="2" fill="#0004FF"/>
<rect x="84" y="44" width="2" height="2" fill="#0004FF"/>
<rect x="84" y="48" width="2" height="2" fill="#0004FF"/>
<rect x="84" y="52" width="2" height="2" fill="#0004FF"/>
<rect x="88" y="28" width="2" height="2" fill="#0004FF"/>
<rect x="88" y="32" width="2" height="2" fill="#0004FF"/>
<rect x="88" y="40" width="2" height="2" fill="#0004FF"/>
<rect x="88" y="44" width="2" height="2" fill="#0004FF"/>
<rect x="88" y="48" width="2" height="2" fill="#0004FF"/>
<rect x="92" y="40" width="2" height="2" fill="#0004FF"/>
<rect x="92" y="44" width="2" height="2" fill="#0004FF"/>
<rect x="92" y="48" width="2" height="2" fill="#0004FF"/>
<rect x="96" y="48" width="2" height="2" fill="#0004FF"/>
</svg>
