<svg width="12" height="12" viewBox="0 0 12 12" fill="none" xmlns="http://www.w3.org/2000/svg">
<g clip-path="url(#clip0_443_28132)">
<path d="M3.21096 10.8272C3.1594 10.8272 3.10986 10.8256 3.05959 10.8223H3.05794C3.02056 10.8189 2.98391 10.8154 2.94524 10.8105C1.93469 10.6788 1.17273 9.80968 1.17273 8.78863V3.20961C1.17273 2.71225 1.35355 2.23349 1.68169 1.86116C2.00724 1.49215 2.4536 1.25351 2.93898 1.18924L2.94414 1.18869H2.94506L2.94985 1.18814C2.97342 1.18538 3.02811 1.17911 3.06052 1.17746C3.10986 1.17433 3.16013 1.17249 3.20948 1.17249H8.79072C9.91378 1.17249 10.8275 2.08636 10.8275 3.20924V8.78863C10.8275 9.91261 9.91322 10.827 8.78924 10.827H3.21096V10.8272Z" fill="#141419"/>
<path d="M8.25816 5.99922C8.25816 8.50644 6.32121 10.5592 3.86425 10.747H3.21112C3.1614 10.747 3.11334 10.7454 3.06509 10.7423C3.02808 10.7391 2.99291 10.7358 2.9559 10.731C1.9947 10.6058 1.25317 9.784 1.25317 8.78873V3.20971C1.25336 2.2161 1.99157 1.39594 2.94964 1.26907C2.9513 1.26907 3.02827 1.2595 3.06528 1.25784C3.11352 1.25471 3.1614 1.25305 3.20964 1.25305H3.86278C6.3214 1.43922 8.25835 3.49199 8.25835 5.99922H8.25816Z" fill="#FF6A13"/>
<path d="M10.7472 8.23825V3.76001H4.28543C3.03807 3.76001 2.02844 4.7632 2.02844 5.99895C2.02844 7.2347 3.03973 8.23789 4.28543 8.23789H10.7472V8.23825Z" fill="#141419"/>
<path d="M7.26715 7.21628H6.9427C6.87051 7.21628 6.82356 7.15773 6.83737 7.0872L7.22222 4.91253C7.23585 4.84016 7.30416 4.78345 7.37671 4.78345H7.70116C7.77335 4.78345 7.8203 4.842 7.80649 4.91253L7.42164 7.0872C7.40801 7.15754 7.33767 7.21628 7.26715 7.21628Z" fill="white"/>
<path d="M9.42626 6.20738L8.96904 4.90294C8.94363 4.82855 8.87531 4.78381 8.79116 4.78381H8.40815C8.33597 4.78381 8.26747 4.84236 8.25366 4.91289L7.86881 7.08756C7.85519 7.15993 7.90196 7.21664 7.97414 7.21664H8.29859C8.37077 7.21664 8.43927 7.15809 8.45308 7.08756L8.6816 5.79288L9.12501 7.09732C9.15042 7.17171 9.21873 7.21646 9.30288 7.21646H9.70154C9.77372 7.21646 9.84222 7.1579 9.85603 7.08738L10.239 4.9127C10.2527 4.84034 10.2059 4.78362 10.1337 4.78362H9.80761C9.73726 4.7816 9.66877 4.8385 9.65514 4.91086L9.42626 6.2072V6.20738Z" fill="white"/>
<path d="M5.64726 6.3617V4.88528C5.64726 4.82856 5.60049 4.78363 5.54562 4.78363H5.14493C5.09411 4.78363 5.04734 4.81309 5.0258 4.85986L4.34982 6.3558V4.88528C4.34982 4.82856 4.30489 4.78363 4.24818 4.78363H3.86922C3.81269 4.78363 3.76758 4.82856 3.76758 4.88528V7.11464C3.76758 7.17135 3.81251 7.21628 3.86922 7.21628H4.39659C4.44742 7.21628 4.49419 7.18516 4.51573 7.13802L5.16224 5.66547V7.11445C5.16224 7.17117 5.20717 7.2161 5.26389 7.2161H5.76014C5.81096 7.2161 5.85589 7.18664 5.87725 7.14171L6.90879 4.92818C6.9401 4.85986 6.8913 4.78345 6.81709 4.78345H6.44587C6.39505 4.78345 6.34828 4.81291 6.32673 4.85968L5.64689 6.36151V6.36188L5.64726 6.3617Z" fill="white"/>
<path fill-rule="evenodd" clip-rule="evenodd" d="M8.78936 10.747H3.21089C2.12926 10.747 1.25313 9.87068 1.25313 8.78887V3.20966C1.25313 2.12858 2.1276 1.25282 3.2096 1.25301H8.79083C9.87283 1.25301 10.7475 2.12858 10.7475 3.20966V3.46801H4.28791C2.89233 3.46801 1.75896 4.60156 1.75896 5.99733C1.75896 7.3931 2.8741 8.51027 4.25532 8.52868H10.7471V8.78868C10.7471 9.8705 9.87099 10.7468 8.78936 10.7468V10.747ZM10.7471 8.02101H4.28791C3.17074 8.02101 2.26478 7.11487 2.26478 5.99733C2.26478 4.87979 3.17074 3.97365 4.28791 3.97365H10.7471V8.02064V8.02101ZM10.3536 1.64725C9.93654 1.2298 9.38155 1 8.84313 1H3.26152C2.6187 1 2.06371 1.2298 1.64663 1.64725C1.22974 2.06414 1.00012 2.61913 1.00012 3.20966V8.78887C1.00012 9.37958 1.23011 9.93513 1.64755 10.3524C2.06499 10.77 2.62036 11 3.21089 11H8.78936C9.37989 11 9.93543 10.77 10.3527 10.3524C10.7701 9.93476 11.0001 9.37958 11.0001 8.78887V3.20966C11.0001 2.61931 10.7705 2.06432 10.3536 1.64725Z" fill="white"/>
</g>
<defs>
<clipPath id="clip0_443_28132">
<rect width="10" height="10" fill="white" transform="translate(1.00012 1)"/>
</clipPath>
</defs>
</svg>
