<svg width="11" height="11" viewBox="0 0 11 11" fill="none" xmlns="http://www.w3.org/2000/svg">
<circle cx="3.5" cy="8.5" r="0.5" fill="#5D5D60"/>
<circle cx="3.5" cy="7.5" r="0.5" fill="#5D5D60"/>
<circle cx="3.5" cy="6.5" r="0.5" fill="#5D5D60"/>
<circle cx="3.5" cy="5.5" r="0.5" fill="#5D5D60"/>
<circle cx="3.5" cy="4.5" r="0.5" fill="#5D5D60"/>
<circle cx="2.5" cy="4.5" r="0.5" fill="#5D5D60"/>
<circle cx="4.5" cy="8.5" r="0.5" fill="#5D5D60"/>
<circle cx="6.5" cy="8.5" r="0.5" fill="#5D5D60"/>
<circle cx="7.5" cy="6.5" r="0.5" fill="#5D5D60"/>
<circle cx="7.5" cy="5.5" r="0.5" fill="#5D5D60"/>
<circle cx="7.5" cy="4.5" r="0.5" fill="#5D5D60"/>
<circle cx="5.5" cy="8.5" r="0.5" fill="#5D5D60"/>
<circle cx="5.5" cy="7.5" r="0.5" fill="#5D5D60"/>
<circle cx="5.5" cy="6.5" r="0.5" fill="#5D5D60"/>
<circle cx="5.5" cy="5.5" r="0.5" fill="#5D5D60"/>
<circle cx="5.5" cy="4.5" r="0.5" fill="#5D5D60"/>
<circle cx="8.5" cy="4.5" r="0.5" fill="#5D5D60"/>
<circle cx="6.5" cy="4.5" r="0.5" fill="#5D5D60"/>
<circle cx="4.5" cy="4.5" r="0.5" fill="#5D5D60"/>
<circle cx="3.5" cy="3.5" r="0.5" fill="#5D5D60"/>
<circle cx="4.5" cy="2.5" r="0.5" fill="#5D5D60"/>
<circle cx="5.5" cy="2.5" r="0.5" fill="#5D5D60"/>
<circle cx="6.5" cy="2.5" r="0.5" fill="#5D5D60"/>
<circle cx="7.5" cy="3.5" r="0.5" fill="#5D5D60"/>
<circle cx="7.5" cy="7.5" r="0.5" fill="#5D5D60"/>
<circle cx="7.5" cy="8.5" r="0.5" fill="#5D5D60"/>
</svg>
